<svg width="70" height="23" viewBox="0 0 70 23" fill="none" xmlns="http://www.w3.org/2000/svg">
<g clip-path="url(#clip0_1_8)">
<path d="M14.4 9.89C15.174 9.89 15.753 10.19 16.14 10.64C15.9216 8.64898 14.9743 6.80916 13.4805 5.4748C11.9868 4.14043 10.0522 3.40589 8.04922 3.41259C6.04627 3.41929 4.11662 4.16678 2.63182 5.51111C1.14702 6.85544 0.212074 8.70156 0.00700148 10.694C-0.0179985 10.947 0.0230015 11.202 0.128001 11.434C0.269593 11.7533 0.502036 12.0238 0.796349 12.2119C1.09066 12.3999 1.43382 12.4972 1.78305 12.4916C2.13227 12.4859 2.4721 12.3776 2.76017 12.1801C3.04825 11.9826 3.27182 11.7047 3.403 11.381C3.43905 11.2883 3.45998 11.1904 3.465 11.091C3.465 11.078 3.465 11.064 3.468 11.051C3.58179 9.94241 4.09153 8.91204 4.90367 8.14894C5.71582 7.38583 6.77591 6.94119 7.88942 6.89658C9.00294 6.85197 10.0952 7.21039 10.9658 7.90608C11.8364 8.60177 12.4269 9.58807 12.629 10.684C13.015 10.212 13.604 9.89 14.401 9.89H14.4Z" fill="black"/>
<path d="M14.578 10.695C13.785 10.612 13.024 11.099 12.735 11.815C12.7189 11.8574 12.7088 11.9018 12.705 11.947C12.5907 13.0422 12.0899 14.0608 11.2923 14.8201C10.4947 15.5793 9.45268 16.0294 8.35318 16.0896C7.25367 16.1498 6.1687 15.8162 5.293 15.1486C4.41729 14.481 3.80818 13.5232 3.575 12.447C3.196 12.991 2.571 13.37 1.704 13.37C1.009 13.37 0.473 13.126 0.0900002 12.75C0.399247 14.685 1.39863 16.4426 2.90337 17.6978C4.40811 18.953 6.31644 19.621 8.27552 19.5782C10.2346 19.5354 12.1119 18.7847 13.5604 17.465C15.0089 16.1452 15.9306 14.3457 16.155 12.399C16.1588 12.3644 16.1588 12.3296 16.155 12.295C16.059 11.485 15.403 10.779 14.578 10.695Z" fill="black"/>
<path d="M8.224 13.307C8.7234 13.307 9.20235 13.1086 9.55548 12.7555C9.90861 12.4023 10.107 11.9234 10.107 11.424C10.107 10.9246 9.90861 10.4456 9.55548 10.0925C9.20235 9.73939 8.7234 9.541 8.224 9.541C7.7246 9.541 7.24565 9.73939 6.89252 10.0925C6.53939 10.4456 6.341 10.9246 6.341 11.424C6.341 11.9234 6.53939 12.4023 6.89252 12.7555C7.24565 13.1086 7.7246 13.307 8.224 13.307ZM31.838 17V15.208H25.694V12.104H30.302V10.344H25.694V7.592H31.838V5.8H23.614V17H31.838ZM35.271 17V13.368C35.271 12.408 35.303 10.424 37.095 10.424C37.975 10.424 38.535 10.936 38.535 12.136V17H40.487V11.752C40.487 9.976 39.575 8.792 37.751 8.792C36.375 8.792 35.575 9.864 35.255 10.872H34.343C34.759 10.248 35.111 9.528 35.111 9.032H33.335V17H35.271ZM45.908 17.24C48.228 17.24 49.924 15.544 49.924 13.016C49.924 10.52 48.244 8.792 45.908 8.792C43.572 8.792 41.876 10.52 41.876 13.016C41.876 15.448 43.588 17.24 45.908 17.24ZM45.908 15.656C44.724 15.656 43.908 14.808 43.908 13.048C43.908 11.272 44.724 10.376 45.908 10.376C47.076 10.376 47.892 11.272 47.892 13.048C47.892 14.808 47.076 15.656 45.908 15.656ZM54.133 17.24C55.83 17.24 56.437 16.104 56.789 15.336H57.702C57.398 15.784 57.014 16.456 57.014 17H58.774V5.8H56.82V7.48C56.82 9.288 57.253 10.072 57.684 10.696H56.756C56.421 9.848 55.765 8.792 54.133 8.792C52.244 8.792 50.869 10.456 50.869 13.016C50.869 15.576 52.245 17.24 54.133 17.24ZM54.885 15.704C53.765 15.704 52.902 15 52.902 13C52.902 11.016 53.766 10.328 54.885 10.328C56.085 10.328 56.917 11.208 56.917 13C56.917 14.808 56.069 15.704 54.885 15.704ZM64.172 17.24C66.284 17.24 67.388 16.168 67.9 14.92L66.14 14.264C65.852 14.936 65.324 15.704 64.204 15.704C63.18 15.704 62.3 15.112 62.236 13.496H67.852C68.108 10.856 66.7 8.792 64.14 8.792C61.932 8.792 60.284 10.472 60.284 13.016C60.284 15.656 61.82 17.24 64.172 17.24ZM62.284 12.056C62.428 10.888 63.18 10.248 64.14 10.248C65.148 10.248 65.852 10.888 65.916 12.056H62.284Z" fill="black"/>
</g>
<defs>
<clipPath id="clip0_1_8">
<rect width="70" height="23" fill="white"/>
</clipPath>
</defs>
</svg>
