<svg width="24" height="24" viewBox="0 0 24 24" fill="none" xmlns="http://www.w3.org/2000/svg">
<path d="M12 15C13.6569 15 15 13.6569 15 12C15 10.3431 13.6569 9 12 9C10.3431 9 9 10.3431 9 12C9 13.6569 10.3431 15 12 15Z" stroke="black" stroke-width="2.5"/>
<path d="M18.105 9.76551C17.1942 7.27611 14.8044 5.49951 11.9994 5.49951C8.4096 5.49951 5.4996 8.40951 5.4996 11.9999C5.4996 15.5897 8.4096 18.4997 11.9994 18.4997C14.8044 18.4997 17.1942 16.7237 18.1056 14.2343M6 11.9999H2.001M21 11.9999H15" stroke="black" stroke-width="2.5"/>
</svg>
