<svg width="70" height="23" viewBox="0 0 70 23" fill="none" xmlns="http://www.w3.org/2000/svg">
<g clip-path="url(#clip0_1_218)">
<path d="M14.4 9.89005C15.174 9.89005 15.753 10.1901 16.14 10.6401C15.9216 8.64904 14.9743 6.80921 13.4805 5.47485C11.9868 4.14049 10.0522 3.40594 8.04922 3.41264C6.04627 3.41935 4.11662 4.16683 2.63182 5.51116C1.14702 6.85549 0.212074 8.70162 0.00700148 10.6941C-0.0179985 10.9471 0.0230015 11.2021 0.128001 11.4341C0.269593 11.7533 0.502036 12.0239 0.796349 12.2119C1.09066 12.4 1.43382 12.4973 1.78305 12.4916C2.13227 12.486 2.4721 12.3776 2.76017 12.1802C3.04825 11.9827 3.27182 11.7047 3.403 11.3811C3.43905 11.2883 3.45998 11.1904 3.465 11.0911C3.465 11.0781 3.465 11.0641 3.468 11.0511C3.58179 9.94247 4.09153 8.91209 4.90367 8.14899C5.71582 7.38589 6.77591 6.94124 7.88942 6.89663C9.00294 6.85202 10.0952 7.21045 10.9658 7.90614C11.8364 8.60183 12.4269 9.58812 12.629 10.6841C13.015 10.2121 13.604 9.89005 14.401 9.89005H14.4Z" fill="black"/>
<path d="M14.578 10.6952C13.785 10.6122 13.024 11.0992 12.735 11.8152C12.7189 11.8576 12.7088 11.9021 12.705 11.9472C12.5907 13.0424 12.0899 14.0611 11.2923 14.8203C10.4947 15.5795 9.45268 16.0296 8.35318 16.0898C7.25367 16.1501 6.1687 15.8164 5.293 15.1488C4.41729 14.4813 3.80818 13.5234 3.575 12.4472C3.196 12.9912 2.571 13.3702 1.704 13.3702C1.009 13.3702 0.473 13.1262 0.0900002 12.7502C0.399247 14.6852 1.39863 16.4428 2.90337 17.698C4.40811 18.9533 6.31644 19.6212 8.27552 19.5784C10.2346 19.5356 12.1119 18.7849 13.5604 17.4652C15.0089 16.1454 15.9306 14.3459 16.155 12.3992C16.1588 12.3647 16.1588 12.3298 16.155 12.2952C16.059 11.4852 15.403 10.7792 14.578 10.6952Z" fill="black"/>
<path d="M8.224 13.3068C8.7234 13.3068 9.20235 13.1084 9.55548 12.7553C9.90861 12.4022 10.107 11.9232 10.107 11.4238C10.107 10.9244 9.90861 10.4455 9.55548 10.0923C9.20235 9.73919 8.7234 9.5408 8.224 9.5408C7.7246 9.5408 7.24565 9.73919 6.89252 10.0923C6.53939 10.4455 6.341 10.9244 6.341 11.4238C6.341 11.9232 6.53939 12.4022 6.89252 12.7553C7.24565 13.1084 7.7246 13.3068 8.224 13.3068ZM31.838 16.9998V15.2078H25.694V12.1038H30.302V10.3438H25.694V7.5918H31.838V5.7998H23.614V16.9998H31.838ZM35.271 16.9998V13.3678C35.271 12.4078 35.303 10.4238 37.095 10.4238C37.975 10.4238 38.535 10.9358 38.535 12.1358V16.9998H40.487V11.7518C40.487 9.9758 39.575 8.7918 37.751 8.7918C36.375 8.7918 35.575 9.8638 35.255 10.8718H34.343C34.759 10.2478 35.111 9.5278 35.111 9.0318H33.335V16.9998H35.271ZM45.908 17.2398C48.228 17.2398 49.924 15.5438 49.924 13.0158C49.924 10.5198 48.244 8.7918 45.908 8.7918C43.572 8.7918 41.876 10.5198 41.876 13.0158C41.876 15.4478 43.588 17.2398 45.908 17.2398ZM45.908 15.6558C44.724 15.6558 43.908 14.8078 43.908 13.0478C43.908 11.2718 44.724 10.3758 45.908 10.3758C47.076 10.3758 47.892 11.2718 47.892 13.0478C47.892 14.8078 47.076 15.6558 45.908 15.6558ZM54.133 17.2398C55.83 17.2398 56.437 16.1038 56.789 15.3358H57.702C57.398 15.7838 57.014 16.4558 57.014 16.9998H58.774V5.7998H56.82V7.4798C56.82 9.2878 57.253 10.0718 57.684 10.6958H56.756C56.421 9.8478 55.765 8.7918 54.133 8.7918C52.244 8.7918 50.869 10.4558 50.869 13.0158C50.869 15.5758 52.245 17.2398 54.133 17.2398ZM54.885 15.7038C53.765 15.7038 52.902 14.9998 52.902 12.9998C52.902 11.0158 53.766 10.3278 54.885 10.3278C56.085 10.3278 56.917 11.2078 56.917 12.9998C56.917 14.8078 56.069 15.7038 54.885 15.7038ZM64.172 17.2398C66.284 17.2398 67.388 16.1678 67.9 14.9198L66.14 14.2638C65.852 14.9358 65.324 15.7038 64.204 15.7038C63.18 15.7038 62.3 15.1118 62.236 13.4958H67.852C68.108 10.8558 66.7 8.7918 64.14 8.7918C61.932 8.7918 60.284 10.4718 60.284 13.0158C60.284 15.6558 61.82 17.2398 64.172 17.2398ZM62.284 12.0558C62.428 10.8878 63.18 10.2478 64.14 10.2478C65.148 10.2478 65.852 10.8878 65.916 12.0558H62.284Z" fill="black"/>
</g>
<defs>
<clipPath id="clip0_1_218">
<rect width="70" height="23" fill="white"/>
</clipPath>
</defs>
</svg>
